<mxfile host="app.diagrams.net" modified="2021-01-19T05:49:52.171Z" agent="5.0 (Windows NT 10.0; Win64; x64) AppleWebKit/537.36 (KHTML, like Gecko) Chrome/87.0.4280.141 Safari/537.36" etag="QlseenVEVzq1q0D0_WGW" version="14.2.4" type="github">
  <diagram name="Page-1" id="9f46799a-70d6-7492-0946-bef42562c5a5">
    <mxGraphModel dx="2698" dy="1669" grid="1" gridSize="10" guides="1" tooltips="1" connect="1" arrows="1" fold="1" page="1" pageScale="1" pageWidth="1100" pageHeight="850" background="#DAD2D8" math="0" shadow="0">
      <root>
        <mxCell id="0" />
        <mxCell id="1" parent="0" />
        <mxCell id="78961159f06e98e8-30" value="&lt;font style=&quot;font-size: 16px&quot;&gt;endpoint&lt;/font&gt;" style="swimlane;html=1;fontStyle=1;align=center;verticalAlign=top;childLayout=stackLayout;horizontal=1;startSize=26;horizontalStack=0;resizeParent=1;resizeLast=0;collapsible=1;marginBottom=0;swimlaneFillColor=#ffffff;rounded=0;shadow=0;comic=0;labelBackgroundColor=none;strokeWidth=1;fillColor=#ffcd28;fontFamily=Verdana;fontSize=12;strokeColor=#d79b00;gradientColor=#ffa500;" parent="1" vertex="1">
          <mxGeometry x="1185" y="-90" width="210" height="320" as="geometry">
            <mxRectangle x="100" y="140" width="70" height="26" as="alternateBounds" />
          </mxGeometry>
        </mxCell>
        <mxCell id="78961159f06e98e8-32" value="/index" style="text;html=1;strokeColor=#666666;fillColor=#f5f5f5;align=left;verticalAlign=top;spacingLeft=4;spacingRight=4;whiteSpace=wrap;overflow=hidden;rotatable=0;points=[[0,0.5],[1,0.5]];portConstraint=eastwest;gradientColor=#b3b3b3;fontStyle=1" parent="78961159f06e98e8-30" vertex="1">
          <mxGeometry y="26" width="210" height="26" as="geometry" />
        </mxCell>
        <mxCell id="78961159f06e98e8-31" value="/registration" style="text;html=1;strokeColor=#d6b656;fillColor=#fff2cc;align=left;verticalAlign=top;spacingLeft=4;spacingRight=4;whiteSpace=wrap;overflow=hidden;rotatable=0;points=[[0,0.5],[1,0.5]];portConstraint=eastwest;gradientColor=#ffd966;fontStyle=1" parent="78961159f06e98e8-30" vertex="1">
          <mxGeometry y="52" width="210" height="26" as="geometry" />
        </mxCell>
        <mxCell id="78961159f06e98e8-33" value="/login" style="text;html=1;strokeColor=#6c8ebf;fillColor=#dae8fc;align=left;verticalAlign=top;spacingLeft=4;spacingRight=4;whiteSpace=wrap;overflow=hidden;rotatable=0;points=[[0,0.5],[1,0.5]];portConstraint=eastwest;gradientColor=#7ea6e0;fontStyle=1" parent="78961159f06e98e8-30" vertex="1">
          <mxGeometry y="78" width="210" height="26" as="geometry" />
        </mxCell>
        <mxCell id="eh9-Qkt411okgl2UQYhm-6" value="/welcome/{username}" style="text;html=1;strokeColor=#9673a6;fillColor=#e1d5e7;align=left;verticalAlign=top;spacingLeft=4;spacingRight=4;whiteSpace=wrap;overflow=hidden;rotatable=0;points=[[0,0.5],[1,0.5]];portConstraint=eastwest;fontStyle=1" parent="78961159f06e98e8-30" vertex="1">
          <mxGeometry y="104" width="210" height="30" as="geometry" />
        </mxCell>
        <mxCell id="78961159f06e98e8-36" value="/{username}/task-list" style="text;html=1;strokeColor=#82b366;fillColor=#d5e8d4;align=left;verticalAlign=top;spacingLeft=4;spacingRight=4;whiteSpace=wrap;overflow=hidden;rotatable=0;points=[[0,0.5],[1,0.5]];portConstraint=eastwest;gradientColor=#97d077;fontStyle=1" parent="78961159f06e98e8-30" vertex="1">
          <mxGeometry y="134" width="210" height="30" as="geometry" />
        </mxCell>
        <mxCell id="78961159f06e98e8-34" value="/{username}/add-task" style="text;html=1;strokeColor=#b85450;fillColor=#f8cecc;align=left;verticalAlign=top;spacingLeft=4;spacingRight=4;whiteSpace=wrap;overflow=hidden;rotatable=0;points=[[0,0.5],[1,0.5]];portConstraint=eastwest;gradientColor=#ea6b66;fontStyle=1" parent="78961159f06e98e8-30" vertex="1">
          <mxGeometry y="164" width="210" height="26" as="geometry" />
        </mxCell>
        <mxCell id="78961159f06e98e8-37" value="/{username}/update-task/{task.id}" style="text;html=1;strokeColor=#996185;fillColor=#e6d0de;align=left;verticalAlign=top;spacingLeft=4;spacingRight=4;whiteSpace=wrap;overflow=hidden;rotatable=0;points=[[0,0.5],[1,0.5]];portConstraint=eastwest;gradientColor=#d5739d;fontStyle=1" parent="78961159f06e98e8-30" vertex="1">
          <mxGeometry y="190" width="210" height="26" as="geometry" />
        </mxCell>
        <mxCell id="78961159f06e98e8-39" value="/{username}/delete-task/{task.id}" style="text;html=1;strokeColor=#36393d;fillColor=#ffff88;align=left;verticalAlign=top;spacingLeft=4;spacingRight=4;whiteSpace=wrap;overflow=hidden;rotatable=0;points=[[0,0.5],[1,0.5]];portConstraint=eastwest;fontStyle=1" parent="78961159f06e98e8-30" vertex="1">
          <mxGeometry y="216" width="210" height="34" as="geometry" />
        </mxCell>
        <mxCell id="4KCaEJAsy-zKywp0iypv-210" value="/logout" style="text;html=1;strokeColor=#6c8ebf;fillColor=#dae8fc;align=left;verticalAlign=top;spacingLeft=4;spacingRight=4;whiteSpace=wrap;overflow=hidden;rotatable=0;points=[[0,0.5],[1,0.5]];portConstraint=eastwest;fontStyle=1" parent="78961159f06e98e8-30" vertex="1">
          <mxGeometry y="250" width="210" height="40" as="geometry" />
        </mxCell>
        <mxCell id="xAUAGSdDY4ZzlaSWscVv-3" value="/swagger-ui.html#/" style="text;html=1;strokeColor=#9673a6;fillColor=#e1d5e7;align=left;verticalAlign=top;spacingLeft=4;spacingRight=4;whiteSpace=wrap;overflow=hidden;rotatable=0;points=[[0,0.5],[1,0.5]];portConstraint=eastwest;fontStyle=1" parent="78961159f06e98e8-30" vertex="1">
          <mxGeometry y="290" width="210" height="30" as="geometry" />
        </mxCell>
        <mxCell id="78961159f06e98e8-69" value="user table column" style="swimlane;html=1;fontStyle=1;align=center;verticalAlign=top;childLayout=stackLayout;horizontal=1;startSize=26;horizontalStack=0;resizeParent=1;resizeLast=0;collapsible=1;marginBottom=0;swimlaneFillColor=#ffffff;rounded=0;shadow=0;comic=0;labelBackgroundColor=none;strokeWidth=1;fillColor=#0050ef;fontFamily=Verdana;fontSize=12;strokeColor=#001DBC;fontColor=#ffffff;" parent="1" vertex="1">
          <mxGeometry x="-380" y="-95" width="160" height="142" as="geometry" />
        </mxCell>
        <mxCell id="xAUAGSdDY4ZzlaSWscVv-36" value="id: pk" style="text;html=1;strokeColor=#BD7000;fillColor=#f0a30a;align=left;verticalAlign=top;spacingLeft=4;spacingRight=4;whiteSpace=wrap;overflow=hidden;rotatable=0;points=[[0,0.5],[1,0.5]];portConstraint=eastwest;fontStyle=1;fontColor=#ffffff;" parent="78961159f06e98e8-69" vertex="1">
          <mxGeometry y="26" width="160" height="32" as="geometry" />
        </mxCell>
        <mxCell id="78961159f06e98e8-70" value="username: String unique" style="text;html=1;strokeColor=#36393d;fillColor=#eeeeee;align=left;verticalAlign=top;spacingLeft=4;spacingRight=4;whiteSpace=wrap;overflow=hidden;rotatable=0;points=[[0,0.5],[1,0.5]];portConstraint=eastwest;fontStyle=1" parent="78961159f06e98e8-69" vertex="1">
          <mxGeometry y="58" width="160" height="26" as="geometry" />
        </mxCell>
        <mxCell id="78961159f06e98e8-71" value="password: String" style="text;html=1;strokeColor=#36393d;fillColor=#ffff88;align=left;verticalAlign=top;spacingLeft=4;spacingRight=4;whiteSpace=wrap;overflow=hidden;rotatable=0;points=[[0,0.5],[1,0.5]];portConstraint=eastwest;fontStyle=1" parent="78961159f06e98e8-69" vertex="1">
          <mxGeometry y="84" width="160" height="26" as="geometry" />
        </mxCell>
        <mxCell id="78961159f06e98e8-72" value="email: String" style="text;html=1;strokeColor=#36393d;fillColor=#cce5ff;align=left;verticalAlign=top;spacingLeft=4;spacingRight=4;whiteSpace=wrap;overflow=hidden;rotatable=0;points=[[0,0.5],[1,0.5]];portConstraint=eastwest;fontStyle=1" parent="78961159f06e98e8-69" vertex="1">
          <mxGeometry y="110" width="160" height="32" as="geometry" />
        </mxCell>
        <mxCell id="78961159f06e98e8-82" value="task table column" style="swimlane;html=1;fontStyle=1;align=center;verticalAlign=top;childLayout=stackLayout;horizontal=1;startSize=26;horizontalStack=0;resizeParent=1;resizeLast=0;collapsible=1;marginBottom=0;swimlaneFillColor=#ffffff;rounded=0;shadow=0;comic=0;labelBackgroundColor=none;strokeWidth=1;fillColor=#0050ef;fontFamily=Verdana;fontSize=12;strokeColor=#001DBC;fontColor=#ffffff;" parent="1" vertex="1">
          <mxGeometry x="-130" y="-95" width="150" height="220" as="geometry" />
        </mxCell>
        <mxCell id="xAUAGSdDY4ZzlaSWscVv-37" value="id: pk" style="text;html=1;strokeColor=#BD7000;fillColor=#f0a30a;align=left;verticalAlign=top;spacingLeft=4;spacingRight=4;whiteSpace=wrap;overflow=hidden;rotatable=0;points=[[0,0.5],[1,0.5]];portConstraint=eastwest;fontStyle=1;fontColor=#ffffff;" parent="78961159f06e98e8-82" vertex="1">
          <mxGeometry y="26" width="150" height="30" as="geometry" />
        </mxCell>
        <mxCell id="78961159f06e98e8-83" value="name: String" style="text;html=1;strokeColor=#666666;fillColor=#f5f5f5;align=left;verticalAlign=top;spacingLeft=4;spacingRight=4;whiteSpace=wrap;overflow=hidden;rotatable=0;points=[[0,0.5],[1,0.5]];portConstraint=eastwest;fontColor=#333333;fontStyle=1" parent="78961159f06e98e8-82" vertex="1">
          <mxGeometry y="56" width="150" height="26" as="geometry" />
        </mxCell>
        <mxCell id="78961159f06e98e8-84" value="description: TINYTEXT" style="text;html=1;strokeColor=#d79b00;fillColor=#ffe6cc;align=left;verticalAlign=top;spacingLeft=4;spacingRight=4;whiteSpace=wrap;overflow=hidden;rotatable=0;points=[[0,0.5],[1,0.5]];portConstraint=eastwest;fontStyle=1" parent="78961159f06e98e8-82" vertex="1">
          <mxGeometry y="82" width="150" height="28" as="geometry" />
        </mxCell>
        <mxCell id="78961159f06e98e8-85" value="startDate: Date" style="text;html=1;strokeColor=#6c8ebf;fillColor=#dae8fc;align=left;verticalAlign=top;spacingLeft=4;spacingRight=4;whiteSpace=wrap;overflow=hidden;rotatable=0;points=[[0,0.5],[1,0.5]];portConstraint=eastwest;fontStyle=1" parent="78961159f06e98e8-82" vertex="1">
          <mxGeometry y="110" width="150" height="26" as="geometry" />
        </mxCell>
        <mxCell id="78961159f06e98e8-86" value="endDate: Date" style="text;html=1;strokeColor=#b85450;fillColor=#f8cecc;align=left;verticalAlign=top;spacingLeft=4;spacingRight=4;whiteSpace=wrap;overflow=hidden;rotatable=0;points=[[0,0.5],[1,0.5]];portConstraint=eastwest;fontStyle=1" parent="78961159f06e98e8-82" vertex="1">
          <mxGeometry y="136" width="150" height="26" as="geometry" />
        </mxCell>
        <mxCell id="78961159f06e98e8-88" value="severity: String" style="text;html=1;strokeColor=#82b366;fillColor=#d5e8d4;align=left;verticalAlign=top;spacingLeft=4;spacingRight=4;whiteSpace=wrap;overflow=hidden;rotatable=0;points=[[0,0.5],[1,0.5]];portConstraint=eastwest;fontStyle=1" parent="78961159f06e98e8-82" vertex="1">
          <mxGeometry y="162" width="150" height="30" as="geometry" />
        </mxCell>
        <mxCell id="xAUAGSdDY4ZzlaSWscVv-25" value="userId: fk" style="text;html=1;strokeColor=#2D7600;fillColor=#60a917;align=left;verticalAlign=top;spacingLeft=4;spacingRight=4;whiteSpace=wrap;overflow=hidden;rotatable=0;points=[[0,0.5],[1,0.5]];portConstraint=eastwest;fontStyle=1;fontColor=#ffffff;" parent="78961159f06e98e8-82" vertex="1">
          <mxGeometry y="192" width="150" height="28" as="geometry" />
        </mxCell>
        <mxCell id="4KCaEJAsy-zKywp0iypv-30" value="" style="edgeStyle=orthogonalEdgeStyle;curved=0;rounded=1;sketch=0;orthogonalLoop=1;jettySize=auto;html=1;fillColor=#FAE5C7;fontColor=#143642;fontStyle=1;strokeWidth=3;strokeColor=#67AB9F;" parent="1" source="4KCaEJAsy-zKywp0iypv-5" target="4KCaEJAsy-zKywp0iypv-29" edge="1">
          <mxGeometry relative="1" as="geometry" />
        </mxCell>
        <mxCell id="4KCaEJAsy-zKywp0iypv-43" style="edgeStyle=orthogonalEdgeStyle;curved=0;rounded=1;sketch=0;orthogonalLoop=1;jettySize=auto;html=1;exitX=0.5;exitY=1;exitDx=0;exitDy=0;entryX=0.366;entryY=0.016;entryDx=0;entryDy=0;entryPerimeter=0;fillColor=#FAE5C7;fontColor=#143642;fontStyle=1;strokeColor=#67AB9F;strokeWidth=3;" parent="1" source="4KCaEJAsy-zKywp0iypv-5" target="4KCaEJAsy-zKywp0iypv-31" edge="1">
          <mxGeometry relative="1" as="geometry" />
        </mxCell>
        <mxCell id="4KCaEJAsy-zKywp0iypv-5" value="&lt;span style=&quot;font-size: 16px;&quot;&gt;com.model&lt;/span&gt;" style="rounded=1;whiteSpace=wrap;html=1;sketch=0;strokeColor=#b46504;fillColor=#fad7ac;fontStyle=1;fontSize=16;" parent="1" vertex="1">
          <mxGeometry x="-250" y="-320" width="140" height="40" as="geometry" />
        </mxCell>
        <mxCell id="4KCaEJAsy-zKywp0iypv-24" value="" style="edgeStyle=orthogonalEdgeStyle;curved=0;rounded=1;sketch=0;orthogonalLoop=1;jettySize=auto;html=1;strokeColor=#A8201A;fillColor=#FAE5C7;fontColor=#143642;entryX=-0.013;entryY=0.669;entryDx=0;entryDy=0;entryPerimeter=0;fontStyle=1;strokeWidth=3;" parent="1" source="4KCaEJAsy-zKywp0iypv-7" target="4KCaEJAsy-zKywp0iypv-45" edge="1">
          <mxGeometry relative="1" as="geometry">
            <mxPoint x="895" y="-447.5" as="targetPoint" />
          </mxGeometry>
        </mxCell>
        <mxCell id="4KCaEJAsy-zKywp0iypv-53" style="edgeStyle=orthogonalEdgeStyle;curved=0;rounded=1;sketch=0;orthogonalLoop=1;jettySize=auto;html=1;exitX=0.5;exitY=1;exitDx=0;exitDy=0;entryX=0.75;entryY=0;entryDx=0;entryDy=0;strokeColor=#A8201A;fillColor=#FAE5C7;fontColor=#143642;fontStyle=1;strokeWidth=4;" parent="1" source="4KCaEJAsy-zKywp0iypv-7" target="4KCaEJAsy-zKywp0iypv-5" edge="1">
          <mxGeometry relative="1" as="geometry" />
        </mxCell>
        <mxCell id="4KCaEJAsy-zKywp0iypv-54" style="edgeStyle=orthogonalEdgeStyle;curved=0;rounded=1;sketch=0;orthogonalLoop=1;jettySize=auto;html=1;exitX=0.5;exitY=1;exitDx=0;exitDy=0;entryX=0.75;entryY=0;entryDx=0;entryDy=0;strokeColor=#A8201A;fillColor=#FAE5C7;fontColor=#143642;fontStyle=1;strokeWidth=3;" parent="1" source="4KCaEJAsy-zKywp0iypv-7" target="4KCaEJAsy-zKywp0iypv-18" edge="1">
          <mxGeometry relative="1" as="geometry" />
        </mxCell>
        <mxCell id="4KCaEJAsy-zKywp0iypv-55" style="edgeStyle=orthogonalEdgeStyle;curved=0;rounded=1;sketch=0;orthogonalLoop=1;jettySize=auto;html=1;exitX=0.5;exitY=1;exitDx=0;exitDy=0;entryX=0.5;entryY=0;entryDx=0;entryDy=0;strokeColor=#A8201A;fillColor=#FAE5C7;fontColor=#143642;fontStyle=1;strokeWidth=3;" parent="1" source="4KCaEJAsy-zKywp0iypv-7" target="4KCaEJAsy-zKywp0iypv-19" edge="1">
          <mxGeometry relative="1" as="geometry" />
        </mxCell>
        <mxCell id="4KCaEJAsy-zKywp0iypv-56" style="edgeStyle=orthogonalEdgeStyle;curved=0;rounded=1;sketch=0;orthogonalLoop=1;jettySize=auto;html=1;exitX=0.5;exitY=1;exitDx=0;exitDy=0;entryX=0.5;entryY=0;entryDx=0;entryDy=0;strokeColor=#A8201A;fillColor=#FAE5C7;fontColor=#143642;fontStyle=1;strokeWidth=3;" parent="1" source="4KCaEJAsy-zKywp0iypv-7" target="4KCaEJAsy-zKywp0iypv-21" edge="1">
          <mxGeometry relative="1" as="geometry">
            <Array as="points">
              <mxPoint x="715" y="-410" />
              <mxPoint x="1290" y="-410" />
            </Array>
          </mxGeometry>
        </mxCell>
        <mxCell id="4KCaEJAsy-zKywp0iypv-57" style="edgeStyle=orthogonalEdgeStyle;curved=0;rounded=1;sketch=0;orthogonalLoop=1;jettySize=auto;html=1;exitX=0.5;exitY=1;exitDx=0;exitDy=0;entryX=0.5;entryY=0;entryDx=0;entryDy=0;strokeColor=#A8201A;fillColor=#FAE5C7;fontColor=#143642;fontStyle=1;strokeWidth=3;" parent="1" source="4KCaEJAsy-zKywp0iypv-7" target="4KCaEJAsy-zKywp0iypv-20" edge="1">
          <mxGeometry relative="1" as="geometry">
            <Array as="points">
              <mxPoint x="715" y="-410" />
              <mxPoint x="1495" y="-410" />
            </Array>
          </mxGeometry>
        </mxCell>
        <mxCell id="4KCaEJAsy-zKywp0iypv-7" value="&lt;span&gt;&lt;font style=&quot;font-size: 17px&quot;&gt;com&lt;br&gt;(base package)&lt;br&gt;&lt;/font&gt;&lt;/span&gt;" style="whiteSpace=wrap;html=1;rounded=0;sketch=0;strokeColor=#82b366;fillColor=#d5e8d4;gradientColor=#97d077;fontStyle=1" parent="1" vertex="1">
          <mxGeometry x="650" y="-580" width="130" height="80" as="geometry" />
        </mxCell>
        <mxCell id="eh9-Qkt411okgl2UQYhm-43" style="edgeStyle=orthogonalEdgeStyle;rounded=0;orthogonalLoop=1;jettySize=auto;html=1;exitX=0.5;exitY=1;exitDx=0;exitDy=0;entryX=0.441;entryY=-0.006;entryDx=0;entryDy=0;entryPerimeter=0;strokeWidth=2;strokeColor=#67AB9F;" parent="1" source="4KCaEJAsy-zKywp0iypv-16" target="xAUAGSdDY4ZzlaSWscVv-40" edge="1">
          <mxGeometry relative="1" as="geometry" />
        </mxCell>
        <mxCell id="4KCaEJAsy-zKywp0iypv-16" value="&lt;span&gt;UserDao&lt;br&gt;(interface)&lt;br&gt;&lt;/span&gt;&lt;span&gt;(@Repository)&lt;/span&gt;&lt;br&gt;&lt;span&gt;(&lt;/span&gt;&lt;span&gt;&lt;span&gt;extends JpaRepositor)&lt;/span&gt;&lt;/span&gt;" style="shape=parallelogram;perimeter=parallelogramPerimeter;whiteSpace=wrap;html=1;fixedSize=1;rounded=1;strokeColor=#6c8ebf;fillColor=#dae8fc;sketch=0;fontStyle=1" parent="1" vertex="1">
          <mxGeometry x="1380" y="-250" width="185" height="90" as="geometry" />
        </mxCell>
        <mxCell id="4KCaEJAsy-zKywp0iypv-26" value="" style="edgeStyle=orthogonalEdgeStyle;curved=0;rounded=1;sketch=0;orthogonalLoop=1;jettySize=auto;html=1;fillColor=#FAE5C7;fontColor=#143642;fontStyle=1;strokeColor=#67AB9F;strokeWidth=3;" parent="1" source="4KCaEJAsy-zKywp0iypv-18" target="4KCaEJAsy-zKywp0iypv-25" edge="1">
          <mxGeometry relative="1" as="geometry" />
        </mxCell>
        <mxCell id="4KCaEJAsy-zKywp0iypv-150" style="edgeStyle=orthogonalEdgeStyle;curved=0;rounded=1;sketch=0;orthogonalLoop=1;jettySize=auto;html=1;exitX=0.5;exitY=1;exitDx=0;exitDy=0;fillColor=#FAE5C7;fontColor=#143642;fontStyle=1;strokeColor=#67AB9F;strokeWidth=3;" parent="1" source="4KCaEJAsy-zKywp0iypv-18" target="4KCaEJAsy-zKywp0iypv-27" edge="1">
          <mxGeometry relative="1" as="geometry" />
        </mxCell>
        <mxCell id="4KCaEJAsy-zKywp0iypv-18" value="&lt;span style=&quot;font-size: 16px;&quot;&gt;com.service&lt;br style=&quot;font-size: 16px;&quot;&gt;&lt;/span&gt;" style="rounded=1;whiteSpace=wrap;html=1;sketch=0;strokeColor=#b46504;fillColor=#fad7ac;fontStyle=1;fontSize=16;" parent="1" vertex="1">
          <mxGeometry x="195" y="-320" width="140" height="40" as="geometry" />
        </mxCell>
        <mxCell id="4KCaEJAsy-zKywp0iypv-178" style="edgeStyle=orthogonalEdgeStyle;curved=0;rounded=1;sketch=0;orthogonalLoop=1;jettySize=auto;html=1;exitX=0.5;exitY=1;exitDx=0;exitDy=0;entryX=0.607;entryY=0;entryDx=0;entryDy=0;entryPerimeter=0;strokeWidth=3;fillColor=#FAE5C7;fontColor=#1A1A1A;strokeColor=#67AB9F;fontStyle=1" parent="1" source="4KCaEJAsy-zKywp0iypv-19" target="4KCaEJAsy-zKywp0iypv-177" edge="1">
          <mxGeometry relative="1" as="geometry" />
        </mxCell>
        <mxCell id="4KCaEJAsy-zKywp0iypv-179" style="edgeStyle=orthogonalEdgeStyle;curved=0;rounded=1;sketch=0;orthogonalLoop=1;jettySize=auto;html=1;exitX=0.5;exitY=1;exitDx=0;exitDy=0;entryX=0.434;entryY=-0.064;entryDx=0;entryDy=0;entryPerimeter=0;strokeWidth=3;fillColor=#FAE5C7;fontColor=#1A1A1A;strokeColor=#67AB9F;fontStyle=1" parent="1" source="4KCaEJAsy-zKywp0iypv-19" target="4KCaEJAsy-zKywp0iypv-176" edge="1">
          <mxGeometry relative="1" as="geometry" />
        </mxCell>
        <mxCell id="4KCaEJAsy-zKywp0iypv-19" value="&lt;span style=&quot;font-size: 16px;&quot;&gt;com.controller&lt;br style=&quot;font-size: 16px;&quot;&gt;&lt;/span&gt;" style="rounded=1;whiteSpace=wrap;html=1;sketch=0;strokeColor=#b46504;fillColor=#fad7ac;fontStyle=1;fontSize=16;" parent="1" vertex="1">
          <mxGeometry x="710" y="-320" width="140" height="40" as="geometry" />
        </mxCell>
        <mxCell id="4KCaEJAsy-zKywp0iypv-22" style="edgeStyle=orthogonalEdgeStyle;curved=0;rounded=1;sketch=0;orthogonalLoop=1;jettySize=auto;html=1;exitX=0.5;exitY=1;exitDx=0;exitDy=0;entryX=0.5;entryY=0;entryDx=0;entryDy=0;fillColor=#FAE5C7;fontColor=#143642;fontStyle=1;strokeColor=#67AB9F;strokeWidth=3;" parent="1" source="4KCaEJAsy-zKywp0iypv-20" target="4KCaEJAsy-zKywp0iypv-16" edge="1">
          <mxGeometry relative="1" as="geometry" />
        </mxCell>
        <mxCell id="4KCaEJAsy-zKywp0iypv-122" style="edgeStyle=orthogonalEdgeStyle;curved=0;rounded=1;sketch=0;orthogonalLoop=1;jettySize=auto;html=1;exitX=0.5;exitY=1;exitDx=0;exitDy=0;entryX=0.354;entryY=-0.016;entryDx=0;entryDy=0;entryPerimeter=0;fillColor=#FAE5C7;fontColor=#143642;fontStyle=1;strokeColor=#67AB9F;strokeWidth=3;" parent="1" source="4KCaEJAsy-zKywp0iypv-20" target="4KCaEJAsy-zKywp0iypv-120" edge="1">
          <mxGeometry relative="1" as="geometry" />
        </mxCell>
        <mxCell id="4KCaEJAsy-zKywp0iypv-20" value="&lt;span style=&quot;font-size: 16px;&quot;&gt;com.dao&lt;/span&gt;" style="rounded=1;whiteSpace=wrap;html=1;sketch=0;strokeColor=#b46504;fillColor=#fad7ac;fontStyle=1;fontSize=16;" parent="1" vertex="1">
          <mxGeometry x="1425" y="-360" width="140" height="40" as="geometry" />
        </mxCell>
        <mxCell id="4KCaEJAsy-zKywp0iypv-62" style="edgeStyle=orthogonalEdgeStyle;curved=0;rounded=1;sketch=0;orthogonalLoop=1;jettySize=auto;html=1;exitX=0.5;exitY=1;exitDx=0;exitDy=0;fillColor=#FAE5C7;fontColor=#143642;fontStyle=1;strokeColor=#67AB9F;strokeWidth=3;" parent="1" source="4KCaEJAsy-zKywp0iypv-21" target="4KCaEJAsy-zKywp0iypv-42" edge="1">
          <mxGeometry relative="1" as="geometry" />
        </mxCell>
        <mxCell id="4KCaEJAsy-zKywp0iypv-21" value="&lt;span style=&quot;font-size: 16px;&quot;&gt;com.exception&lt;br style=&quot;font-size: 16px;&quot;&gt;&lt;/span&gt;" style="rounded=1;whiteSpace=wrap;html=1;sketch=0;fillColor=#fad7ac;fontStyle=1;strokeColor=#67AB9F;strokeWidth=3;fontSize=16;" parent="1" vertex="1">
          <mxGeometry x="1220" y="-360" width="140" height="40" as="geometry" />
        </mxCell>
        <mxCell id="4KCaEJAsy-zKywp0iypv-124" style="edgeStyle=orthogonalEdgeStyle;curved=0;rounded=1;sketch=0;orthogonalLoop=1;jettySize=auto;html=1;exitX=0.5;exitY=1;exitDx=0;exitDy=0;entryX=0.5;entryY=0;entryDx=0;entryDy=0;fillColor=#FAE5C7;fontColor=#143642;fontStyle=1;strokeWidth=3;strokeColor=#FF3333;" parent="1" source="4KCaEJAsy-zKywp0iypv-25" target="4KCaEJAsy-zKywp0iypv-118" edge="1">
          <mxGeometry relative="1" as="geometry" />
        </mxCell>
        <mxCell id="4KCaEJAsy-zKywp0iypv-125" style="edgeStyle=orthogonalEdgeStyle;curved=0;rounded=1;sketch=0;orthogonalLoop=1;jettySize=auto;html=1;entryX=0.366;entryY=0.074;entryDx=0;entryDy=0;entryPerimeter=0;fillColor=#FAE5C7;fontColor=#143642;fontStyle=1;strokeWidth=3;strokeColor=#FF3333;" parent="1" source="4KCaEJAsy-zKywp0iypv-25" target="4KCaEJAsy-zKywp0iypv-123" edge="1">
          <mxGeometry relative="1" as="geometry" />
        </mxCell>
        <mxCell id="4KCaEJAsy-zKywp0iypv-25" value="&lt;span&gt;ServiceInterface&lt;br&gt;(interface)&lt;/span&gt;" style="shape=parallelogram;perimeter=parallelogramPerimeter;whiteSpace=wrap;html=1;fixedSize=1;rounded=1;strokeColor=#6c8ebf;fillColor=#dae8fc;sketch=0;fontStyle=1" parent="1" vertex="1">
          <mxGeometry x="80" y="-210" width="150" height="50" as="geometry" />
        </mxCell>
        <mxCell id="4KCaEJAsy-zKywp0iypv-130" style="edgeStyle=orthogonalEdgeStyle;curved=0;rounded=1;sketch=0;orthogonalLoop=1;jettySize=auto;html=1;exitX=0.5;exitY=1;exitDx=0;exitDy=0;fillColor=#FAE5C7;fontColor=#143642;fontStyle=1;strokeWidth=3;strokeColor=#FF3333;" parent="1" source="4KCaEJAsy-zKywp0iypv-27" edge="1">
          <mxGeometry relative="1" as="geometry">
            <mxPoint x="560" y="-100" as="targetPoint" />
          </mxGeometry>
        </mxCell>
        <mxCell id="4KCaEJAsy-zKywp0iypv-132" style="edgeStyle=orthogonalEdgeStyle;curved=0;rounded=1;sketch=0;orthogonalLoop=1;jettySize=auto;html=1;exitX=0.5;exitY=1;exitDx=0;exitDy=0;entryX=0.25;entryY=0;entryDx=0;entryDy=0;fillColor=#FAE5C7;fontColor=#143642;fontStyle=1;strokeColor=#FF3333;strokeWidth=3;" parent="1" source="4KCaEJAsy-zKywp0iypv-27" target="4KCaEJAsy-zKywp0iypv-128" edge="1">
          <mxGeometry relative="1" as="geometry" />
        </mxCell>
        <mxCell id="4KCaEJAsy-zKywp0iypv-27" value="&lt;span&gt;ServiceImpl&lt;br&gt;(class)&lt;/span&gt;" style="shape=parallelogram;perimeter=parallelogramPerimeter;whiteSpace=wrap;html=1;fixedSize=1;rounded=1;strokeColor=#6c8ebf;fillColor=#dae8fc;sketch=0;fontStyle=1" parent="1" vertex="1">
          <mxGeometry x="370" y="-210" width="140" height="50" as="geometry" />
        </mxCell>
        <mxCell id="4KCaEJAsy-zKywp0iypv-100" style="edgeStyle=orthogonalEdgeStyle;curved=0;rounded=1;sketch=0;orthogonalLoop=1;jettySize=auto;html=1;exitX=0.5;exitY=1;exitDx=0;exitDy=0;strokeColor=#1A1A1A;fillColor=#FAE5C7;fontColor=#143642;fontStyle=1;strokeWidth=2;" parent="1" source="4KCaEJAsy-zKywp0iypv-29" target="78961159f06e98e8-82" edge="1">
          <mxGeometry relative="1" as="geometry" />
        </mxCell>
        <mxCell id="4KCaEJAsy-zKywp0iypv-29" value="&lt;span&gt;Task&lt;br&gt;(pojo class)&lt;/span&gt;" style="shape=parallelogram;perimeter=parallelogramPerimeter;whiteSpace=wrap;html=1;fixedSize=1;rounded=1;strokeColor=#6c8ebf;fillColor=#dae8fc;sketch=0;fontStyle=1" parent="1" vertex="1">
          <mxGeometry x="-170" y="-219" width="120" height="60" as="geometry" />
        </mxCell>
        <mxCell id="4KCaEJAsy-zKywp0iypv-98" style="edgeStyle=orthogonalEdgeStyle;curved=0;rounded=1;sketch=0;orthogonalLoop=1;jettySize=auto;html=1;exitX=0.5;exitY=1;exitDx=0;exitDy=0;entryX=0.421;entryY=-0.007;entryDx=0;entryDy=0;entryPerimeter=0;fillColor=#FAE5C7;fontColor=#143642;strokeColor=#1A1A1A;fontStyle=1;strokeWidth=2;" parent="1" source="4KCaEJAsy-zKywp0iypv-31" target="78961159f06e98e8-69" edge="1">
          <mxGeometry relative="1" as="geometry" />
        </mxCell>
        <mxCell id="4KCaEJAsy-zKywp0iypv-31" value="&lt;span&gt;User&lt;br&gt;(pojo class)&lt;/span&gt;" style="shape=parallelogram;perimeter=parallelogramPerimeter;whiteSpace=wrap;html=1;fixedSize=1;rounded=1;strokeColor=#6c8ebf;fillColor=#dae8fc;sketch=0;fontStyle=1" parent="1" vertex="1">
          <mxGeometry x="-290" y="-219" width="120" height="60" as="geometry" />
        </mxCell>
        <mxCell id="4KCaEJAsy-zKywp0iypv-38" value="one to many" style="text;html=1;align=center;verticalAlign=middle;resizable=0;points=[];autosize=1;fillColor=#f8cecc;gradientColor=#ea6b66;strokeColor=#b85450;fontStyle=1" parent="1" vertex="1">
          <mxGeometry x="-375" y="240" width="90" height="20" as="geometry" />
        </mxCell>
        <mxCell id="4KCaEJAsy-zKywp0iypv-42" value="&lt;span&gt;DataNotFoundException&lt;br&gt;&lt;br&gt;&lt;/span&gt;" style="shape=parallelogram;perimeter=parallelogramPerimeter;whiteSpace=wrap;html=1;fixedSize=1;rounded=1;strokeColor=#6c8ebf;fillColor=#dae8fc;sketch=0;fontStyle=1" parent="1" vertex="1">
          <mxGeometry x="1180" y="-290" width="220" height="99" as="geometry" />
        </mxCell>
        <mxCell id="xAUAGSdDY4ZzlaSWscVv-1" style="edgeStyle=orthogonalEdgeStyle;rounded=0;orthogonalLoop=1;jettySize=auto;html=1;exitX=0.5;exitY=1;exitDx=0;exitDy=0;entryX=0;entryY=0.5;entryDx=0;entryDy=0;fontStyle=1" parent="1" source="4KCaEJAsy-zKywp0iypv-45" target="78961159f06e98e8-32" edge="1">
          <mxGeometry relative="1" as="geometry" />
        </mxCell>
        <mxCell id="4KCaEJAsy-zKywp0iypv-45" value="&lt;span&gt;run application&lt;/span&gt;&lt;br&gt;&lt;span&gt;&lt;span&gt;@SpringBootApplication&lt;/span&gt;&lt;/span&gt;&lt;span&gt;&amp;nbsp;&lt;/span&gt;" style="shape=process;whiteSpace=wrap;html=1;backgroundOutline=1;rounded=0;sketch=0;strokeColor=#36393d;fillColor=#cdeb8b;fontStyle=1" parent="1" vertex="1">
          <mxGeometry x="1030" y="-510" width="220" height="60" as="geometry" />
        </mxCell>
        <mxCell id="xAUAGSdDY4ZzlaSWscVv-4" style="edgeStyle=orthogonalEdgeStyle;rounded=0;orthogonalLoop=1;jettySize=auto;html=1;exitX=0.5;exitY=0;exitDx=0;exitDy=0;exitPerimeter=0;strokeWidth=2;strokeColor=#FF3333;fontStyle=1" parent="1" source="4KCaEJAsy-zKywp0iypv-47" target="xAUAGSdDY4ZzlaSWscVv-3" edge="1">
          <mxGeometry relative="1" as="geometry" />
        </mxCell>
        <mxCell id="4KCaEJAsy-zKywp0iypv-47" value="&lt;h1&gt;&lt;span&gt;Swagger2&lt;/span&gt;&lt;/h1&gt;" style="shape=note;whiteSpace=wrap;html=1;backgroundOutline=1;darkOpacity=0.05;rounded=0;sketch=0;strokeColor=#36393d;fillColor=#cdeb8b;fontStyle=1" parent="1" vertex="1">
          <mxGeometry x="1285" y="320" width="140" height="110" as="geometry" />
        </mxCell>
        <mxCell id="4KCaEJAsy-zKywp0iypv-63" value="methods(Task)" style="swimlane;html=1;fontStyle=1;align=center;verticalAlign=top;childLayout=stackLayout;horizontal=1;startSize=26;horizontalStack=0;resizeParent=1;resizeLast=0;collapsible=1;marginBottom=0;swimlaneFillColor=#ffffff;rounded=0;shadow=0;comic=0;labelBackgroundColor=none;strokeWidth=1;fillColor=#0050ef;fontFamily=Verdana;fontSize=12;strokeColor=#001DBC;fontColor=#ffffff;" parent="1" vertex="1">
          <mxGeometry x="140" y="320" width="140" height="150" as="geometry">
            <mxRectangle x="100" y="140" width="70" height="26" as="alternateBounds" />
          </mxGeometry>
        </mxCell>
        <mxCell id="4KCaEJAsy-zKywp0iypv-68" value="&lt;span&gt;addTask&lt;/span&gt;" style="text;html=1;strokeColor=#82b366;fillColor=#d5e8d4;align=left;verticalAlign=top;spacingLeft=4;spacingRight=4;whiteSpace=wrap;overflow=hidden;rotatable=0;points=[[0,0.5],[1,0.5]];portConstraint=eastwest;gradientColor=#97d077;fontStyle=1" parent="4KCaEJAsy-zKywp0iypv-63" vertex="1">
          <mxGeometry y="26" width="140" height="30" as="geometry" />
        </mxCell>
        <mxCell id="4KCaEJAsy-zKywp0iypv-71" value="findTaskById" style="text;html=1;strokeColor=#6c8ebf;fillColor=#dae8fc;align=left;verticalAlign=top;spacingLeft=4;spacingRight=4;whiteSpace=wrap;overflow=hidden;rotatable=0;points=[[0,0.5],[1,0.5]];portConstraint=eastwest;fontStyle=1" parent="4KCaEJAsy-zKywp0iypv-63" vertex="1">
          <mxGeometry y="56" width="140" height="30" as="geometry" />
        </mxCell>
        <mxCell id="4KCaEJAsy-zKywp0iypv-117" value="updateTaskById" style="text;html=1;strokeColor=#0e8088;fillColor=#b0e3e6;align=left;verticalAlign=top;spacingLeft=4;spacingRight=4;whiteSpace=wrap;overflow=hidden;rotatable=0;points=[[0,0.5],[1,0.5]];portConstraint=eastwest;fontStyle=1" parent="4KCaEJAsy-zKywp0iypv-63" vertex="1">
          <mxGeometry y="86" width="140" height="30" as="geometry" />
        </mxCell>
        <mxCell id="4KCaEJAsy-zKywp0iypv-146" value="deleteTaskById" style="text;html=1;strokeColor=#36393d;fillColor=#ffcc99;align=left;verticalAlign=top;spacingLeft=4;spacingRight=4;whiteSpace=wrap;overflow=hidden;rotatable=0;points=[[0,0.5],[1,0.5]];portConstraint=eastwest;fontStyle=1" parent="4KCaEJAsy-zKywp0iypv-63" vertex="1">
          <mxGeometry y="116" width="140" height="32" as="geometry" />
        </mxCell>
        <mxCell id="4KCaEJAsy-zKywp0iypv-74" value="methods" style="swimlane;html=1;fontStyle=1;align=center;verticalAlign=top;childLayout=stackLayout;horizontal=1;startSize=26;horizontalStack=0;resizeParent=1;resizeLast=0;collapsible=1;marginBottom=0;swimlaneFillColor=#ffffff;rounded=0;shadow=0;comic=0;labelBackgroundColor=none;strokeWidth=1;fillColor=#0050ef;fontFamily=Verdana;fontSize=12;strokeColor=#001DBC;fontColor=#ffffff;" parent="1" vertex="1">
          <mxGeometry x="610" y="-105" width="320" height="265" as="geometry">
            <mxRectangle x="100" y="140" width="70" height="26" as="alternateBounds" />
          </mxGeometry>
        </mxCell>
        <mxCell id="4KCaEJAsy-zKywp0iypv-75" value="indexPage -&amp;gt; GetMapping" style="text;html=1;strokeColor=#82b366;fillColor=#d5e8d4;align=left;verticalAlign=top;spacingLeft=4;spacingRight=4;whiteSpace=wrap;overflow=hidden;rotatable=0;points=[[0,0.5],[1,0.5]];portConstraint=eastwest;gradientColor=#97d077;fontStyle=1" parent="4KCaEJAsy-zKywp0iypv-74" vertex="1">
          <mxGeometry y="26" width="320" height="26" as="geometry" />
        </mxCell>
        <mxCell id="eh9-Qkt411okgl2UQYhm-12" value="registrationPage-&amp;gt; GetMapping" style="text;html=1;strokeColor=#d6b656;fillColor=#fff2cc;align=left;verticalAlign=top;spacingLeft=4;spacingRight=4;whiteSpace=wrap;overflow=hidden;rotatable=0;points=[[0,0.5],[1,0.5]];portConstraint=eastwest;gradientColor=#ffd966;fontStyle=1" parent="4KCaEJAsy-zKywp0iypv-74" vertex="1">
          <mxGeometry y="52" width="320" height="26" as="geometry" />
        </mxCell>
        <mxCell id="eh9-Qkt411okgl2UQYhm-10" value="&lt;span&gt;register-&amp;gt; addUser -&amp;gt; PostMapping&lt;/span&gt;" style="text;html=1;strokeColor=#b85450;fillColor=#f8cecc;align=left;verticalAlign=top;spacingLeft=4;spacingRight=4;whiteSpace=wrap;overflow=hidden;rotatable=0;points=[[0,0.5],[1,0.5]];portConstraint=eastwest;gradientColor=#ea6b66;fontStyle=1" parent="4KCaEJAsy-zKywp0iypv-74" vertex="1">
          <mxGeometry y="78" width="320" height="26" as="geometry" />
        </mxCell>
        <mxCell id="4KCaEJAsy-zKywp0iypv-76" value="loginPage-&amp;gt; GetMapping" style="text;html=1;strokeColor=#6c8ebf;fillColor=#dae8fc;align=left;verticalAlign=top;spacingLeft=4;spacingRight=4;whiteSpace=wrap;overflow=hidden;rotatable=0;points=[[0,0.5],[1,0.5]];portConstraint=eastwest;gradientColor=#7ea6e0;fontStyle=1" parent="4KCaEJAsy-zKywp0iypv-74" vertex="1">
          <mxGeometry y="104" width="320" height="26" as="geometry" />
        </mxCell>
        <mxCell id="eh9-Qkt411okgl2UQYhm-15" value="&lt;span&gt;userLogin-&amp;gt; userService.login-&amp;gt; PostMapping&amp;nbsp;&lt;/span&gt;" style="text;html=1;strokeColor=#b85450;fillColor=#f8cecc;align=left;verticalAlign=top;spacingLeft=4;spacingRight=4;whiteSpace=wrap;overflow=hidden;rotatable=0;points=[[0,0.5],[1,0.5]];portConstraint=eastwest;gradientColor=#ea6b66;fontStyle=1" parent="4KCaEJAsy-zKywp0iypv-74" vertex="1">
          <mxGeometry y="130" width="320" height="26" as="geometry" />
        </mxCell>
        <mxCell id="4KCaEJAsy-zKywp0iypv-77" value="getWelcome-&amp;gt; GetMapping" style="text;html=1;strokeColor=#36393d;fillColor=#cdeb8b;align=left;verticalAlign=top;spacingLeft=4;spacingRight=4;whiteSpace=wrap;overflow=hidden;rotatable=0;points=[[0,0.5],[1,0.5]];portConstraint=eastwest;fontStyle=1" parent="4KCaEJAsy-zKywp0iypv-74" vertex="1">
          <mxGeometry y="156" width="320" height="24" as="geometry" />
        </mxCell>
        <mxCell id="eh9-Qkt411okgl2UQYhm-20" value="getUserTasks-&amp;gt; userDao.getUserByUsername.getTasks&lt;br&gt;GetMapping" style="text;html=1;strokeColor=#36393d;fillColor=#ffff88;align=left;verticalAlign=top;spacingLeft=4;spacingRight=4;whiteSpace=wrap;overflow=hidden;rotatable=0;points=[[0,0.5],[1,0.5]];portConstraint=eastwest;fontStyle=1" parent="4KCaEJAsy-zKywp0iypv-74" vertex="1">
          <mxGeometry y="180" width="320" height="50" as="geometry" />
        </mxCell>
        <mxCell id="eh9-Qkt411okgl2UQYhm-18" value="&lt;span&gt;logout-&amp;gt; set currentUser ==null&lt;/span&gt;" style="text;html=1;strokeColor=#666666;fillColor=#f5f5f5;align=left;verticalAlign=top;spacingLeft=4;spacingRight=4;whiteSpace=wrap;overflow=hidden;rotatable=0;points=[[0,0.5],[1,0.5]];portConstraint=eastwest;gradientColor=#b3b3b3;fontStyle=1" parent="4KCaEJAsy-zKywp0iypv-74" vertex="1">
          <mxGeometry y="230" width="320" height="30" as="geometry" />
        </mxCell>
        <mxCell id="4KCaEJAsy-zKywp0iypv-101" value="methods(User)" style="swimlane;html=1;fontStyle=1;align=center;verticalAlign=top;childLayout=stackLayout;horizontal=1;startSize=26;horizontalStack=0;resizeParent=1;resizeLast=0;collapsible=1;marginBottom=0;swimlaneFillColor=#ffffff;rounded=0;shadow=0;comic=0;labelBackgroundColor=none;strokeWidth=1;fillColor=#0050ef;fontFamily=Verdana;fontSize=12;strokeColor=#001DBC;fontColor=#ffffff;" parent="1" vertex="1">
          <mxGeometry x="335" y="17" width="175" height="78" as="geometry">
            <mxRectangle x="100" y="140" width="70" height="26" as="alternateBounds" />
          </mxGeometry>
        </mxCell>
        <mxCell id="4KCaEJAsy-zKywp0iypv-102" value="addUser-&amp;gt; save" style="text;html=1;strokeColor=#9673a6;fillColor=#e1d5e7;align=left;verticalAlign=top;spacingLeft=4;spacingRight=4;whiteSpace=wrap;overflow=hidden;rotatable=0;points=[[0,0.5],[1,0.5]];portConstraint=eastwest;fontStyle=1" parent="4KCaEJAsy-zKywp0iypv-101" vertex="1">
          <mxGeometry y="26" width="175" height="26" as="geometry" />
        </mxCell>
        <mxCell id="4KCaEJAsy-zKywp0iypv-103" value="login( return boolean)" style="text;html=1;strokeColor=#d6b656;fillColor=#fff2cc;align=left;verticalAlign=top;spacingLeft=4;spacingRight=4;whiteSpace=wrap;overflow=hidden;rotatable=0;points=[[0,0.5],[1,0.5]];portConstraint=eastwest;gradientColor=#ffd966;fontStyle=1" parent="4KCaEJAsy-zKywp0iypv-101" vertex="1">
          <mxGeometry y="52" width="175" height="26" as="geometry" />
        </mxCell>
        <mxCell id="4KCaEJAsy-zKywp0iypv-147" style="edgeStyle=orthogonalEdgeStyle;curved=0;rounded=1;sketch=0;orthogonalLoop=1;jettySize=auto;html=1;exitX=0.5;exitY=1;exitDx=0;exitDy=0;entryX=0.5;entryY=0;entryDx=0;entryDy=0;fillColor=#FAE5C7;fontColor=#143642;fontStyle=1;strokeWidth=2;strokeColor=#1A1A1A;" parent="1" source="4KCaEJAsy-zKywp0iypv-118" target="4KCaEJAsy-zKywp0iypv-133" edge="1">
          <mxGeometry relative="1" as="geometry" />
        </mxCell>
        <mxCell id="4KCaEJAsy-zKywp0iypv-118" value="UserServiceInterface" style="whiteSpace=wrap;html=1;rounded=1;strokeColor=#0e8088;fillColor=#b0e3e6;sketch=0;fontStyle=1" parent="1" vertex="1">
          <mxGeometry x="30" y="-90" width="130" height="60" as="geometry" />
        </mxCell>
        <mxCell id="4KCaEJAsy-zKywp0iypv-120" value="&lt;span&gt;TaskDao&lt;br&gt;(interface)&lt;br&gt;&lt;/span&gt;&lt;span&gt;(@Repository)&lt;/span&gt;&lt;br&gt;&lt;span&gt;(&lt;/span&gt;&lt;span&gt;&lt;span&gt;extends JpaRepositor)&lt;/span&gt;&lt;/span&gt;" style="shape=parallelogram;perimeter=parallelogramPerimeter;whiteSpace=wrap;html=1;fixedSize=1;rounded=1;strokeColor=#6c8ebf;fillColor=#dae8fc;sketch=0;fontStyle=1" parent="1" vertex="1">
          <mxGeometry x="1555" y="-230" width="185" height="90" as="geometry" />
        </mxCell>
        <mxCell id="4KCaEJAsy-zKywp0iypv-152" style="edgeStyle=orthogonalEdgeStyle;curved=0;rounded=1;sketch=0;orthogonalLoop=1;jettySize=auto;html=1;exitX=0.5;exitY=1;exitDx=0;exitDy=0;entryX=0.5;entryY=0;entryDx=0;entryDy=0;fillColor=#FAE5C7;fontColor=#143642;fontStyle=1;strokeWidth=3;strokeColor=#1A1A1A;" parent="1" source="4KCaEJAsy-zKywp0iypv-123" target="4KCaEJAsy-zKywp0iypv-63" edge="1">
          <mxGeometry relative="1" as="geometry" />
        </mxCell>
        <mxCell id="4KCaEJAsy-zKywp0iypv-123" value="TaskServiceInterface" style="whiteSpace=wrap;html=1;rounded=1;strokeColor=#0e8088;fillColor=#b0e3e6;sketch=0;fontStyle=1" parent="1" vertex="1">
          <mxGeometry x="180" y="-90" width="140" height="60" as="geometry" />
        </mxCell>
        <mxCell id="4KCaEJAsy-zKywp0iypv-153" style="edgeStyle=orthogonalEdgeStyle;curved=0;rounded=1;sketch=0;orthogonalLoop=1;jettySize=auto;html=1;exitX=0.5;exitY=1;exitDx=0;exitDy=0;entryX=0.555;entryY=0.013;entryDx=0;entryDy=0;entryPerimeter=0;fillColor=#FAE5C7;fontColor=#143642;fontStyle=1;strokeColor=#1A1A1A;strokeWidth=2;" parent="1" source="4KCaEJAsy-zKywp0iypv-127" target="4KCaEJAsy-zKywp0iypv-140" edge="1">
          <mxGeometry relative="1" as="geometry" />
        </mxCell>
        <mxCell id="4KCaEJAsy-zKywp0iypv-127" value="TaskServiceImpl" style="whiteSpace=wrap;html=1;rounded=1;strokeColor=#0e8088;fillColor=#b0e3e6;sketch=0;fontStyle=1" parent="1" vertex="1">
          <mxGeometry x="500" y="-95" width="120" height="60" as="geometry" />
        </mxCell>
        <mxCell id="4KCaEJAsy-zKywp0iypv-151" style="edgeStyle=orthogonalEdgeStyle;curved=0;rounded=1;sketch=0;orthogonalLoop=1;jettySize=auto;html=1;exitX=0.5;exitY=1;exitDx=0;exitDy=0;entryX=0.5;entryY=0;entryDx=0;entryDy=0;fillColor=#FAE5C7;fontColor=#143642;fontStyle=1;strokeWidth=2;strokeColor=#1A1A1A;" parent="1" source="4KCaEJAsy-zKywp0iypv-128" target="4KCaEJAsy-zKywp0iypv-101" edge="1">
          <mxGeometry relative="1" as="geometry" />
        </mxCell>
        <mxCell id="4KCaEJAsy-zKywp0iypv-128" value="UserServiceImpl" style="whiteSpace=wrap;html=1;rounded=1;strokeColor=#0e8088;fillColor=#b0e3e6;sketch=0;fontStyle=1" parent="1" vertex="1">
          <mxGeometry x="330" y="-95" width="120" height="60" as="geometry" />
        </mxCell>
        <mxCell id="4KCaEJAsy-zKywp0iypv-133" value="methods(User)" style="swimlane;html=1;fontStyle=1;align=center;verticalAlign=top;childLayout=stackLayout;horizontal=1;startSize=26;horizontalStack=0;resizeParent=1;resizeLast=0;collapsible=1;marginBottom=0;swimlaneFillColor=#ffffff;rounded=0;shadow=0;comic=0;labelBackgroundColor=none;strokeWidth=1;fillColor=#0050ef;fontFamily=Verdana;fontSize=12;strokeColor=#001DBC;fontColor=#ffffff;" parent="1" vertex="1">
          <mxGeometry x="30" y="28.5" width="130" height="81" as="geometry">
            <mxRectangle x="100" y="140" width="70" height="26" as="alternateBounds" />
          </mxGeometry>
        </mxCell>
        <mxCell id="4KCaEJAsy-zKywp0iypv-134" value="addUser" style="text;html=1;strokeColor=#9673a6;fillColor=#e1d5e7;align=left;verticalAlign=top;spacingLeft=4;spacingRight=4;whiteSpace=wrap;overflow=hidden;rotatable=0;points=[[0,0.5],[1,0.5]];portConstraint=eastwest;fontStyle=1" parent="4KCaEJAsy-zKywp0iypv-133" vertex="1">
          <mxGeometry y="26" width="130" height="26" as="geometry" />
        </mxCell>
        <mxCell id="4KCaEJAsy-zKywp0iypv-135" value="login" style="text;html=1;strokeColor=#d6b656;fillColor=#fff2cc;align=left;verticalAlign=top;spacingLeft=4;spacingRight=4;whiteSpace=wrap;overflow=hidden;rotatable=0;points=[[0,0.5],[1,0.5]];portConstraint=eastwest;gradientColor=#ffd966;fontStyle=1" parent="4KCaEJAsy-zKywp0iypv-133" vertex="1">
          <mxGeometry y="52" width="130" height="28" as="geometry" />
        </mxCell>
        <mxCell id="4KCaEJAsy-zKywp0iypv-140" value="methods(Task)" style="swimlane;html=1;fontStyle=1;align=center;verticalAlign=top;childLayout=stackLayout;horizontal=1;startSize=26;horizontalStack=0;resizeParent=1;resizeLast=0;collapsible=1;marginBottom=0;swimlaneFillColor=#ffffff;rounded=0;shadow=0;comic=0;labelBackgroundColor=none;strokeWidth=1;fillColor=#0050ef;fontFamily=Verdana;fontSize=12;strokeColor=#001DBC;fontColor=#ffffff;" parent="1" vertex="1">
          <mxGeometry x="400" y="162" width="240" height="174" as="geometry">
            <mxRectangle x="100" y="140" width="70" height="26" as="alternateBounds" />
          </mxGeometry>
        </mxCell>
        <mxCell id="4KCaEJAsy-zKywp0iypv-143" value="&lt;span&gt;addTask -&amp;gt; save&lt;/span&gt;" style="text;html=1;strokeColor=#82b366;fillColor=#d5e8d4;align=left;verticalAlign=top;spacingLeft=4;spacingRight=4;whiteSpace=wrap;overflow=hidden;rotatable=0;points=[[0,0.5],[1,0.5]];portConstraint=eastwest;gradientColor=#97d077;fontStyle=1" parent="4KCaEJAsy-zKywp0iypv-140" vertex="1">
          <mxGeometry y="26" width="240" height="30" as="geometry" />
        </mxCell>
        <mxCell id="4KCaEJAsy-zKywp0iypv-144" value="getAllTasks" style="text;html=1;strokeColor=#36393d;fillColor=#ffff88;align=left;verticalAlign=top;spacingLeft=4;spacingRight=4;whiteSpace=wrap;overflow=hidden;rotatable=0;points=[[0,0.5],[1,0.5]];portConstraint=eastwest;fontStyle=1" parent="4KCaEJAsy-zKywp0iypv-140" vertex="1">
          <mxGeometry y="56" width="240" height="26" as="geometry" />
        </mxCell>
        <mxCell id="4KCaEJAsy-zKywp0iypv-145" value="findTaskByName-&amp;gt; findById&amp;nbsp;" style="text;html=1;strokeColor=#6c8ebf;fillColor=#dae8fc;align=left;verticalAlign=top;spacingLeft=4;spacingRight=4;whiteSpace=wrap;overflow=hidden;rotatable=0;points=[[0,0.5],[1,0.5]];portConstraint=eastwest;fontStyle=1" parent="4KCaEJAsy-zKywp0iypv-140" vertex="1">
          <mxGeometry y="82" width="240" height="30" as="geometry" />
        </mxCell>
        <mxCell id="4KCaEJAsy-zKywp0iypv-154" value="updateTaskByNmae-&amp;gt;FindByid-&amp;gt; save" style="text;html=1;strokeColor=#0e8088;fillColor=#b0e3e6;align=left;verticalAlign=top;spacingLeft=4;spacingRight=4;whiteSpace=wrap;overflow=hidden;rotatable=0;points=[[0,0.5],[1,0.5]];portConstraint=eastwest;fontStyle=1" parent="4KCaEJAsy-zKywp0iypv-140" vertex="1">
          <mxGeometry y="112" width="240" height="30" as="geometry" />
        </mxCell>
        <mxCell id="4KCaEJAsy-zKywp0iypv-156" value="deleteTaskByName-&amp;gt;FindById-&amp;gt;remove" style="text;html=1;strokeColor=#36393d;fillColor=#ffcc99;align=left;verticalAlign=top;spacingLeft=4;spacingRight=4;whiteSpace=wrap;overflow=hidden;rotatable=0;points=[[0,0.5],[1,0.5]];portConstraint=eastwest;fontStyle=1" parent="4KCaEJAsy-zKywp0iypv-140" vertex="1">
          <mxGeometry y="142" width="240" height="32" as="geometry" />
        </mxCell>
        <mxCell id="4KCaEJAsy-zKywp0iypv-166" value="methods" style="swimlane;html=1;fontStyle=1;align=center;verticalAlign=top;childLayout=stackLayout;horizontal=1;startSize=26;horizontalStack=0;resizeParent=1;resizeLast=0;collapsible=1;marginBottom=0;swimlaneFillColor=#ffffff;rounded=0;shadow=0;comic=0;labelBackgroundColor=none;strokeWidth=1;fillColor=#0050ef;fontFamily=Verdana;fontSize=12;strokeColor=#001DBC;fontColor=#ffffff;" parent="1" vertex="1">
          <mxGeometry x="700" y="182" width="340" height="264" as="geometry">
            <mxRectangle x="100" y="140" width="70" height="26" as="alternateBounds" />
          </mxGeometry>
        </mxCell>
        <mxCell id="4KCaEJAsy-zKywp0iypv-170" value="&lt;span&gt;showTaskForm&amp;nbsp;-&amp;gt; GetMapping&lt;/span&gt;" style="text;html=1;strokeColor=#82b366;fillColor=#d5e8d4;align=left;verticalAlign=top;spacingLeft=4;spacingRight=4;whiteSpace=wrap;overflow=hidden;rotatable=0;points=[[0,0.5],[1,0.5]];portConstraint=eastwest;fontStyle=1;gradientColor=#97d077;" parent="4KCaEJAsy-zKywp0iypv-166" vertex="1">
          <mxGeometry y="26" width="340" height="26" as="geometry" />
        </mxCell>
        <mxCell id="eh9-Qkt411okgl2UQYhm-25" value="&lt;span&gt;createTask-&amp;gt; userService.addTask-&amp;gt; PostMapping&lt;/span&gt;" style="text;html=1;strokeColor=#b85450;fillColor=#f8cecc;align=left;verticalAlign=top;spacingLeft=4;spacingRight=4;whiteSpace=wrap;overflow=hidden;rotatable=0;points=[[0,0.5],[1,0.5]];portConstraint=eastwest;gradientColor=#ea6b66;fontStyle=1" parent="4KCaEJAsy-zKywp0iypv-166" vertex="1">
          <mxGeometry y="52" width="340" height="26" as="geometry" />
        </mxCell>
        <mxCell id="4KCaEJAsy-zKywp0iypv-172" value="showUpdateForm-&amp;gt;taskService.findById-&amp;gt;GetMapping" style="text;html=1;strokeColor=#36393d;fillColor=#cce5ff;align=left;verticalAlign=top;spacingLeft=4;spacingRight=4;whiteSpace=wrap;overflow=hidden;rotatable=0;points=[[0,0.5],[1,0.5]];portConstraint=eastwest;fontStyle=1" parent="4KCaEJAsy-zKywp0iypv-166" vertex="1">
          <mxGeometry y="78" width="340" height="30" as="geometry" />
        </mxCell>
        <mxCell id="eh9-Qkt411okgl2UQYhm-28" value="updateTask-&amp;gt;&lt;br&gt;taskService.findTaskById&lt;br&gt;userDao.GetUserByUsername-&amp;gt;&lt;br&gt;task.setUser-&amp;gt;&lt;br&gt;taskService.updateTask -&amp;gt; PostMapping" style="text;html=1;strokeColor=#b85450;fillColor=#f8cecc;align=left;verticalAlign=top;spacingLeft=4;spacingRight=4;whiteSpace=wrap;overflow=hidden;rotatable=0;points=[[0,0.5],[1,0.5]];portConstraint=eastwest;gradientColor=#ea6b66;fontStyle=1" parent="4KCaEJAsy-zKywp0iypv-166" vertex="1">
          <mxGeometry y="108" width="340" height="76" as="geometry" />
        </mxCell>
        <mxCell id="4KCaEJAsy-zKywp0iypv-173" value="deleteTask-&amp;gt;&amp;nbsp;&lt;br&gt;userDao.GetUserByUsername-&amp;gt;&lt;br&gt;user.removeTask-&amp;gt;&lt;br&gt;userDao.save-&amp;gt;&lt;br&gt;taskDao.deleteById" style="text;html=1;strokeColor=#36393d;fillColor=#ffff88;align=left;verticalAlign=top;spacingLeft=4;spacingRight=4;whiteSpace=wrap;overflow=hidden;rotatable=0;points=[[0,0.5],[1,0.5]];portConstraint=eastwest;fontStyle=1" parent="4KCaEJAsy-zKywp0iypv-166" vertex="1">
          <mxGeometry y="184" width="340" height="80" as="geometry" />
        </mxCell>
        <mxCell id="4KCaEJAsy-zKywp0iypv-176" value="TaskController" style="shape=parallelogram;perimeter=parallelogramPerimeter;whiteSpace=wrap;html=1;fixedSize=1;rounded=1;strokeColor=#6c8ebf;fillColor=#dae8fc;sketch=0;fontStyle=1" parent="1" vertex="1">
          <mxGeometry x="890" y="-200" width="140" height="50" as="geometry" />
        </mxCell>
        <mxCell id="4KCaEJAsy-zKywp0iypv-212" style="edgeStyle=orthogonalEdgeStyle;curved=0;rounded=1;sketch=0;orthogonalLoop=1;jettySize=auto;html=1;exitX=0.5;exitY=1;exitDx=0;exitDy=0;strokeWidth=3;fillColor=#FAE5C7;fontColor=#1A1A1A;strokeColor=#FF3333;fontStyle=1" parent="1" source="4KCaEJAsy-zKywp0iypv-177" edge="1">
          <mxGeometry relative="1" as="geometry">
            <mxPoint x="740" y="-100" as="targetPoint" />
          </mxGeometry>
        </mxCell>
        <mxCell id="4KCaEJAsy-zKywp0iypv-177" value="UserController" style="shape=parallelogram;perimeter=parallelogramPerimeter;whiteSpace=wrap;html=1;fixedSize=1;rounded=1;strokeColor=#6c8ebf;fillColor=#dae8fc;sketch=0;fontStyle=1" parent="1" vertex="1">
          <mxGeometry x="660" y="-209" width="140" height="50" as="geometry" />
        </mxCell>
        <mxCell id="4KCaEJAsy-zKywp0iypv-197" value="JSP" style="swimlane;html=1;fontStyle=1;align=center;verticalAlign=top;childLayout=stackLayout;horizontal=1;startSize=26;horizontalStack=0;resizeParent=1;resizeLast=0;collapsible=1;marginBottom=0;swimlaneFillColor=#ffffff;rounded=0;shadow=0;comic=0;labelBackgroundColor=none;strokeWidth=1;fillColor=#0050ef;fontFamily=Verdana;fontSize=12;strokeColor=#001DBC;fontColor=#ffffff;" parent="1" vertex="1">
          <mxGeometry x="1610" y="-60" width="205" height="290" as="geometry" />
        </mxCell>
        <mxCell id="4KCaEJAsy-zKywp0iypv-199" value="&lt;span&gt;index.jsp&lt;/span&gt;" style="text;html=1;strokeColor=#36393d;fillColor=#ffff88;align=left;verticalAlign=top;spacingLeft=4;spacingRight=4;whiteSpace=wrap;overflow=hidden;rotatable=0;points=[[0,0.5],[1,0.5]];portConstraint=eastwest;fontStyle=1" parent="4KCaEJAsy-zKywp0iypv-197" vertex="1">
          <mxGeometry y="26" width="205" height="34" as="geometry" />
        </mxCell>
        <mxCell id="4KCaEJAsy-zKywp0iypv-200" value="&lt;span&gt;registration.jsp&lt;/span&gt;" style="text;html=1;strokeColor=#36393d;fillColor=#cce5ff;align=left;verticalAlign=top;spacingLeft=4;spacingRight=4;whiteSpace=wrap;overflow=hidden;rotatable=0;points=[[0,0.5],[1,0.5]];portConstraint=eastwest;fontStyle=1" parent="4KCaEJAsy-zKywp0iypv-197" vertex="1">
          <mxGeometry y="60" width="205" height="30" as="geometry" />
        </mxCell>
        <mxCell id="4KCaEJAsy-zKywp0iypv-201" value="login.jsp" style="text;html=1;strokeColor=#d79b00;fillColor=#ffcd28;align=left;verticalAlign=top;spacingLeft=4;spacingRight=4;whiteSpace=wrap;overflow=hidden;rotatable=0;points=[[0,0.5],[1,0.5]];portConstraint=eastwest;fontStyle=1;gradientColor=#ffa500;" parent="4KCaEJAsy-zKywp0iypv-197" vertex="1">
          <mxGeometry y="90" width="205" height="40" as="geometry" />
        </mxCell>
        <mxCell id="eh9-Qkt411okgl2UQYhm-44" value="welcome.jsp" style="text;html=1;strokeColor=#82b366;fillColor=#d5e8d4;align=left;verticalAlign=top;spacingLeft=4;spacingRight=4;whiteSpace=wrap;overflow=hidden;rotatable=0;points=[[0,0.5],[1,0.5]];portConstraint=eastwest;fontStyle=1;gradientColor=#97d077;" parent="4KCaEJAsy-zKywp0iypv-197" vertex="1">
          <mxGeometry y="130" width="205" height="40" as="geometry" />
        </mxCell>
        <mxCell id="4KCaEJAsy-zKywp0iypv-203" value="task-list.jsp" style="text;html=1;strokeColor=#d6b656;fillColor=#fff2cc;align=left;verticalAlign=top;spacingLeft=4;spacingRight=4;whiteSpace=wrap;overflow=hidden;rotatable=0;points=[[0,0.5],[1,0.5]];portConstraint=eastwest;fontStyle=1;gradientColor=#ffd966;" parent="4KCaEJAsy-zKywp0iypv-197" vertex="1">
          <mxGeometry y="170" width="205" height="40" as="geometry" />
        </mxCell>
        <mxCell id="4KCaEJAsy-zKywp0iypv-202" value="task-form.jsp" style="text;html=1;strokeColor=#b85450;fillColor=#f8cecc;align=left;verticalAlign=top;spacingLeft=4;spacingRight=4;whiteSpace=wrap;overflow=hidden;rotatable=0;points=[[0,0.5],[1,0.5]];portConstraint=eastwest;fontStyle=1;gradientColor=#ea6b66;" parent="4KCaEJAsy-zKywp0iypv-197" vertex="1">
          <mxGeometry y="210" width="205" height="40" as="geometry" />
        </mxCell>
        <mxCell id="eh9-Qkt411okgl2UQYhm-46" value="update-form.jsp" style="text;html=1;strokeColor=#d6b656;fillColor=#fff2cc;align=left;verticalAlign=top;spacingLeft=4;spacingRight=4;whiteSpace=wrap;overflow=hidden;rotatable=0;points=[[0,0.5],[1,0.5]];portConstraint=eastwest;fontStyle=1;gradientColor=#ffd966;" parent="4KCaEJAsy-zKywp0iypv-197" vertex="1">
          <mxGeometry y="250" width="205" height="40" as="geometry" />
        </mxCell>
        <mxCell id="4KCaEJAsy-zKywp0iypv-232" style="edgeStyle=orthogonalEdgeStyle;curved=0;rounded=1;sketch=0;orthogonalLoop=1;jettySize=auto;html=1;exitX=0.5;exitY=0;exitDx=0;exitDy=0;exitPerimeter=0;strokeWidth=3;fillColor=#FAE5C7;fontColor=#1A1A1A;strokeColor=#FF3333;fontStyle=1" parent="1" source="4KCaEJAsy-zKywp0iypv-207" edge="1">
          <mxGeometry relative="1" as="geometry">
            <mxPoint x="1640" y="230" as="targetPoint" />
            <Array as="points">
              <mxPoint x="1610" y="284" />
              <mxPoint x="1670" y="284" />
              <mxPoint x="1670" y="260" />
              <mxPoint x="1650" y="260" />
              <mxPoint x="1650" y="230" />
            </Array>
          </mxGeometry>
        </mxCell>
        <mxCell id="4KCaEJAsy-zKywp0iypv-207" value="&lt;h1&gt;&lt;span&gt;JSP Page&lt;/span&gt;&lt;/h1&gt;" style="shape=note;whiteSpace=wrap;html=1;backgroundOutline=1;darkOpacity=0.05;rounded=0;sketch=0;strokeColor=#67AB9F;strokeWidth=3;fillColor=#FAE5C7;fontColor=#1A1A1A;fontStyle=1" parent="1" vertex="1">
          <mxGeometry x="1570" y="304" width="80" height="100" as="geometry" />
        </mxCell>
        <mxCell id="4KCaEJAsy-zKywp0iypv-224" style="rounded=1;sketch=0;orthogonalLoop=1;jettySize=auto;html=1;exitX=1;exitY=0.5;exitDx=0;exitDy=0;strokeColor=#000099;strokeWidth=1;fillColor=#FAE5C7;fontColor=#1A1A1A;fontStyle=1" parent="1" source="78961159f06e98e8-32" target="4KCaEJAsy-zKywp0iypv-199" edge="1">
          <mxGeometry relative="1" as="geometry" />
        </mxCell>
        <mxCell id="4KCaEJAsy-zKywp0iypv-225" style="rounded=1;sketch=0;orthogonalLoop=1;jettySize=auto;html=1;exitX=1;exitY=0.5;exitDx=0;exitDy=0;entryX=0;entryY=0.5;entryDx=0;entryDy=0;strokeColor=#000099;strokeWidth=1;fillColor=#FAE5C7;fontColor=#1A1A1A;fontStyle=1" parent="1" source="78961159f06e98e8-33" target="4KCaEJAsy-zKywp0iypv-201" edge="1">
          <mxGeometry relative="1" as="geometry" />
        </mxCell>
        <mxCell id="4KCaEJAsy-zKywp0iypv-226" style="rounded=1;sketch=0;orthogonalLoop=1;jettySize=auto;html=1;exitX=1;exitY=0.5;exitDx=0;exitDy=0;entryX=0;entryY=0.5;entryDx=0;entryDy=0;strokeColor=#000099;strokeWidth=1;fillColor=#FAE5C7;fontColor=#1A1A1A;fontStyle=1" parent="1" source="78961159f06e98e8-34" target="4KCaEJAsy-zKywp0iypv-202" edge="1">
          <mxGeometry relative="1" as="geometry" />
        </mxCell>
        <mxCell id="4KCaEJAsy-zKywp0iypv-228" style="rounded=1;sketch=0;orthogonalLoop=1;jettySize=auto;html=1;exitX=1;exitY=0.5;exitDx=0;exitDy=0;strokeWidth=1;fillColor=#FAE5C7;fontColor=#1A1A1A;strokeColor=#FF00FF;fontStyle=1;shape=flexArrow;entryX=-0.033;entryY=0.505;entryDx=0;entryDy=0;entryPerimeter=0;" parent="1" source="78961159f06e98e8-37" target="eh9-Qkt411okgl2UQYhm-46" edge="1">
          <mxGeometry relative="1" as="geometry" />
        </mxCell>
        <mxCell id="4KCaEJAsy-zKywp0iypv-231" style="rounded=1;sketch=0;orthogonalLoop=1;jettySize=auto;html=1;exitX=1;exitY=0.5;exitDx=0;exitDy=0;strokeWidth=1;fillColor=#FAE5C7;fontColor=#1A1A1A;strokeColor=#000099;fontStyle=1" parent="1" source="78961159f06e98e8-31" target="4KCaEJAsy-zKywp0iypv-200" edge="1">
          <mxGeometry relative="1" as="geometry" />
        </mxCell>
        <mxCell id="xAUAGSdDY4ZzlaSWscVv-5" value="" style="shape=cube;whiteSpace=wrap;html=1;boundedLbl=1;backgroundOutline=1;darkOpacity=0.05;darkOpacity2=0.1;fillColor=#d5e8d4;strokeColor=#82b366;fontStyle=1" parent="1" vertex="1">
          <mxGeometry y="-610" width="490" height="160" as="geometry" />
        </mxCell>
        <mxCell id="xAUAGSdDY4ZzlaSWscVv-6" value="devtools" style="rounded=0;whiteSpace=wrap;html=1;strokeColor=#d6b656;fontStyle=1;fillColor=#FFE433;" parent="1" vertex="1">
          <mxGeometry x="45" y="-570" width="85" height="30" as="geometry" />
        </mxCell>
        <mxCell id="xAUAGSdDY4ZzlaSWscVv-12" value="mysql" style="rounded=0;whiteSpace=wrap;html=1;strokeColor=#d6b656;fontStyle=1;fillColor=#FFE433;" parent="1" vertex="1">
          <mxGeometry x="47.5" y="-490" width="85" height="30" as="geometry" />
        </mxCell>
        <mxCell id="xAUAGSdDY4ZzlaSWscVv-13" value="web" style="rounded=0;whiteSpace=wrap;html=1;strokeColor=#d6b656;fontStyle=1;fillColor=#FFE433;" parent="1" vertex="1">
          <mxGeometry x="160" y="-530" width="85" height="30" as="geometry" />
        </mxCell>
        <mxCell id="xAUAGSdDY4ZzlaSWscVv-14" value="tomcat" style="rounded=0;whiteSpace=wrap;html=1;strokeColor=#d6b656;fontStyle=1;fillColor=#FFE433;" parent="1" vertex="1">
          <mxGeometry x="160" y="-570" width="85" height="30" as="geometry" />
        </mxCell>
        <mxCell id="xAUAGSdDY4ZzlaSWscVv-15" value="lombok" style="rounded=0;whiteSpace=wrap;html=1;strokeColor=#d6b656;fontStyle=1;fillColor=#FFE433;" parent="1" vertex="1">
          <mxGeometry x="45" y="-530" width="85" height="30" as="geometry" />
        </mxCell>
        <mxCell id="xAUAGSdDY4ZzlaSWscVv-16" value="JPA" style="rounded=0;whiteSpace=wrap;html=1;strokeColor=#d6b656;fontStyle=1;fillColor=#FFE433;" parent="1" vertex="1">
          <mxGeometry x="265" y="-570" width="85" height="30" as="geometry" />
        </mxCell>
        <mxCell id="xAUAGSdDY4ZzlaSWscVv-17" value="bootstrap" style="rounded=0;whiteSpace=wrap;html=1;strokeColor=#d6b656;fontStyle=1;fillColor=#FFE433;" parent="1" vertex="1">
          <mxGeometry x="160" y="-490" width="85" height="30" as="geometry" />
        </mxCell>
        <mxCell id="xAUAGSdDY4ZzlaSWscVv-20" value="swagger2" style="rounded=0;whiteSpace=wrap;html=1;strokeColor=#d6b656;fontStyle=1;fillColor=#FFE433;" parent="1" vertex="1">
          <mxGeometry x="265" y="-530" width="85" height="30" as="geometry" />
        </mxCell>
        <mxCell id="xAUAGSdDY4ZzlaSWscVv-21" value="Swagger2-UI" style="rounded=0;whiteSpace=wrap;html=1;strokeColor=#d6b656;fontStyle=1;fillColor=#FFE433;" parent="1" vertex="1">
          <mxGeometry x="265" y="-490" width="85" height="30" as="geometry" />
        </mxCell>
        <mxCell id="xAUAGSdDY4ZzlaSWscVv-26" style="edgeStyle=orthogonalEdgeStyle;rounded=0;orthogonalLoop=1;jettySize=auto;html=1;exitX=0.5;exitY=0;exitDx=0;exitDy=0;exitPerimeter=0;strokeColor=#FF3333;strokeWidth=2;" parent="1" source="xAUAGSdDY4ZzlaSWscVv-23" edge="1">
          <mxGeometry relative="1" as="geometry">
            <mxPoint x="-310" y="50" as="targetPoint" />
          </mxGeometry>
        </mxCell>
        <mxCell id="xAUAGSdDY4ZzlaSWscVv-23" value="&lt;b&gt;table&lt;br&gt;User&lt;/b&gt;" style="shape=cylinder3;whiteSpace=wrap;html=1;boundedLbl=1;backgroundOutline=1;size=15;fillColor=#cdeb8b;strokeColor=#36393d;" parent="1" vertex="1">
          <mxGeometry x="-360" y="160" width="60" height="80" as="geometry" />
        </mxCell>
        <mxCell id="xAUAGSdDY4ZzlaSWscVv-27" style="edgeStyle=orthogonalEdgeStyle;rounded=0;orthogonalLoop=1;jettySize=auto;html=1;exitX=0.5;exitY=0;exitDx=0;exitDy=0;exitPerimeter=0;strokeColor=#FF3333;strokeWidth=2;" parent="1" source="xAUAGSdDY4ZzlaSWscVv-24" edge="1">
          <mxGeometry relative="1" as="geometry">
            <mxPoint x="-70" y="140" as="targetPoint" />
          </mxGeometry>
        </mxCell>
        <mxCell id="xAUAGSdDY4ZzlaSWscVv-24" value="&lt;b&gt;table&amp;nbsp;&lt;br&gt;Task&lt;/b&gt;" style="shape=cylinder3;whiteSpace=wrap;html=1;boundedLbl=1;backgroundOutline=1;size=15;fillColor=#cdeb8b;strokeColor=#36393d;" parent="1" vertex="1">
          <mxGeometry x="-100" y="194" width="60" height="110" as="geometry" />
        </mxCell>
        <mxCell id="xAUAGSdDY4ZzlaSWscVv-40" value="methods(UserDao)" style="swimlane;html=1;fontStyle=1;align=center;verticalAlign=top;childLayout=stackLayout;horizontal=1;startSize=26;horizontalStack=0;resizeParent=1;resizeLast=0;collapsible=1;marginBottom=0;swimlaneFillColor=#ffffff;rounded=0;shadow=0;comic=0;labelBackgroundColor=none;strokeWidth=1;fillColor=#0050ef;fontFamily=Verdana;fontSize=12;strokeColor=#001DBC;fontColor=#ffffff;" parent="1" vertex="1">
          <mxGeometry x="1410" y="-130" width="140" height="52" as="geometry">
            <mxRectangle x="100" y="140" width="70" height="26" as="alternateBounds" />
          </mxGeometry>
        </mxCell>
        <mxCell id="xAUAGSdDY4ZzlaSWscVv-41" value="getUserByUsername" style="text;html=1;strokeColor=#9673a6;fillColor=#e1d5e7;align=left;verticalAlign=top;spacingLeft=4;spacingRight=4;whiteSpace=wrap;overflow=hidden;rotatable=0;points=[[0,0.5],[1,0.5]];portConstraint=eastwest;fontStyle=1" parent="xAUAGSdDY4ZzlaSWscVv-40" vertex="1">
          <mxGeometry y="26" width="140" height="26" as="geometry" />
        </mxCell>
        <mxCell id="eh9-Qkt411okgl2UQYhm-1" value="JSTL" style="rounded=0;whiteSpace=wrap;html=1;strokeColor=#d6b656;fontStyle=1;fillColor=#FFE433;" parent="1" vertex="1">
          <mxGeometry x="365" y="-570" width="85" height="30" as="geometry" />
        </mxCell>
        <mxCell id="eh9-Qkt411okgl2UQYhm-4" value="bootstrap-datepicker" style="rounded=0;whiteSpace=wrap;html=1;strokeColor=#d6b656;fontStyle=1;fillColor=#FFE433;" parent="1" vertex="1">
          <mxGeometry x="365" y="-530" width="85" height="30" as="geometry" />
        </mxCell>
        <mxCell id="eh9-Qkt411okgl2UQYhm-5" value="jquery" style="rounded=0;whiteSpace=wrap;html=1;strokeColor=#d6b656;fontStyle=1;fillColor=#FFE433;" parent="1" vertex="1">
          <mxGeometry x="365" y="-490" width="85" height="30" as="geometry" />
        </mxCell>
        <mxCell id="eh9-Qkt411okgl2UQYhm-14" style="edgeStyle=orthogonalEdgeStyle;rounded=0;orthogonalLoop=1;jettySize=auto;html=1;exitX=1;exitY=0.5;exitDx=0;exitDy=0;strokeColor=#000099;strokeWidth=2;" parent="1" source="eh9-Qkt411okgl2UQYhm-8" edge="1">
          <mxGeometry relative="1" as="geometry">
            <mxPoint x="1440" y="410" as="targetPoint" />
          </mxGeometry>
        </mxCell>
        <mxCell id="eh9-Qkt411okgl2UQYhm-8" value="&lt;span style=&quot;font-size: 16px&quot;&gt;com.config&lt;br style=&quot;font-size: 16px&quot;&gt;&lt;/span&gt;" style="rounded=1;whiteSpace=wrap;html=1;sketch=0;strokeColor=#b46504;fillColor=#fad7ac;fontStyle=1;fontSize=16;" parent="1" vertex="1">
          <mxGeometry x="1240" y="440" width="140" height="40" as="geometry" />
        </mxCell>
        <mxCell id="eh9-Qkt411okgl2UQYhm-11" style="rounded=0;orthogonalLoop=1;jettySize=auto;html=1;exitX=1;exitY=0.5;exitDx=0;exitDy=0;strokeWidth=2;strokeColor=#000099;" parent="1" source="4KCaEJAsy-zKywp0iypv-75" edge="1">
          <mxGeometry relative="1" as="geometry">
            <mxPoint x="1190" y="-50.00000000000023" as="targetPoint" />
          </mxGeometry>
        </mxCell>
        <mxCell id="eh9-Qkt411okgl2UQYhm-13" style="rounded=0;orthogonalLoop=1;jettySize=auto;html=1;exitX=1;exitY=0.5;exitDx=0;exitDy=0;entryX=0;entryY=0.5;entryDx=0;entryDy=0;strokeColor=#000099;strokeWidth=2;" parent="1" source="eh9-Qkt411okgl2UQYhm-12" target="78961159f06e98e8-31" edge="1">
          <mxGeometry relative="1" as="geometry" />
        </mxCell>
        <mxCell id="eh9-Qkt411okgl2UQYhm-17" style="rounded=0;orthogonalLoop=1;jettySize=auto;html=1;exitX=1;exitY=0.5;exitDx=0;exitDy=0;strokeColor=#000099;strokeWidth=2;" parent="1" source="4KCaEJAsy-zKywp0iypv-76" target="78961159f06e98e8-33" edge="1">
          <mxGeometry relative="1" as="geometry" />
        </mxCell>
        <mxCell id="eh9-Qkt411okgl2UQYhm-19" style="rounded=0;orthogonalLoop=1;jettySize=auto;html=1;exitX=1;exitY=0.5;exitDx=0;exitDy=0;entryX=0;entryY=0.5;entryDx=0;entryDy=0;strokeColor=#000099;strokeWidth=2;" parent="1" source="4KCaEJAsy-zKywp0iypv-77" target="eh9-Qkt411okgl2UQYhm-6" edge="1">
          <mxGeometry relative="1" as="geometry" />
        </mxCell>
        <mxCell id="eh9-Qkt411okgl2UQYhm-21" style="rounded=0;orthogonalLoop=1;jettySize=auto;html=1;exitX=1;exitY=0.5;exitDx=0;exitDy=0;entryX=0;entryY=0.5;entryDx=0;entryDy=0;strokeColor=#000099;strokeWidth=2;" parent="1" source="eh9-Qkt411okgl2UQYhm-20" target="78961159f06e98e8-36" edge="1">
          <mxGeometry relative="1" as="geometry" />
        </mxCell>
        <mxCell id="eh9-Qkt411okgl2UQYhm-23" style="rounded=0;orthogonalLoop=1;jettySize=auto;html=1;exitX=1;exitY=0.5;exitDx=0;exitDy=0;strokeColor=#000099;strokeWidth=2;entryX=0;entryY=0.5;entryDx=0;entryDy=0;" parent="1" source="eh9-Qkt411okgl2UQYhm-18" target="78961159f06e98e8-32" edge="1">
          <mxGeometry relative="1" as="geometry" />
        </mxCell>
        <mxCell id="eh9-Qkt411okgl2UQYhm-22" style="edgeStyle=orthogonalEdgeStyle;curved=0;rounded=1;sketch=0;orthogonalLoop=1;jettySize=auto;html=1;exitX=0.5;exitY=1;exitDx=0;exitDy=0;strokeWidth=3;fillColor=#FAE5C7;fontColor=#1A1A1A;strokeColor=#FF3333;fontStyle=1" parent="1" source="4KCaEJAsy-zKywp0iypv-176" edge="1">
          <mxGeometry relative="1" as="geometry">
            <mxPoint x="960" y="-150.00000000000023" as="sourcePoint" />
            <mxPoint x="990" y="180" as="targetPoint" />
          </mxGeometry>
        </mxCell>
        <mxCell id="eh9-Qkt411okgl2UQYhm-27" style="rounded=0;orthogonalLoop=1;jettySize=auto;html=1;exitX=1;exitY=0.5;exitDx=0;exitDy=0;entryX=0;entryY=0.5;entryDx=0;entryDy=0;strokeColor=#000099;strokeWidth=2;" parent="1" source="4KCaEJAsy-zKywp0iypv-172" target="78961159f06e98e8-37" edge="1">
          <mxGeometry relative="1" as="geometry" />
        </mxCell>
        <mxCell id="eh9-Qkt411okgl2UQYhm-29" style="rounded=0;orthogonalLoop=1;jettySize=auto;html=1;exitX=1;exitY=0.5;exitDx=0;exitDy=0;entryX=0;entryY=0.5;entryDx=0;entryDy=0;strokeColor=#000099;strokeWidth=2;" parent="1" source="4KCaEJAsy-zKywp0iypv-173" target="78961159f06e98e8-39" edge="1">
          <mxGeometry relative="1" as="geometry" />
        </mxCell>
        <mxCell id="eh9-Qkt411okgl2UQYhm-30" style="rounded=0;orthogonalLoop=1;jettySize=auto;html=1;exitX=1;exitY=0.5;exitDx=0;exitDy=0;entryX=0;entryY=0.5;entryDx=0;entryDy=0;strokeWidth=2;strokeColor=#00CC00;" parent="1" source="eh9-Qkt411okgl2UQYhm-10" target="78961159f06e98e8-31" edge="1">
          <mxGeometry relative="1" as="geometry" />
        </mxCell>
        <mxCell id="eh9-Qkt411okgl2UQYhm-31" style="rounded=0;orthogonalLoop=1;jettySize=auto;html=1;exitX=1;exitY=0.5;exitDx=0;exitDy=0;entryX=0;entryY=0.5;entryDx=0;entryDy=0;strokeColor=#00CC00;strokeWidth=2;" parent="1" source="eh9-Qkt411okgl2UQYhm-15" target="78961159f06e98e8-33" edge="1">
          <mxGeometry relative="1" as="geometry" />
        </mxCell>
        <mxCell id="eh9-Qkt411okgl2UQYhm-32" style="rounded=0;orthogonalLoop=1;jettySize=auto;html=1;exitX=1;exitY=0.5;exitDx=0;exitDy=0;entryX=0.031;entryY=0.856;entryDx=0;entryDy=0;entryPerimeter=0;strokeColor=#00CC00;strokeWidth=2;" parent="1" source="eh9-Qkt411okgl2UQYhm-25" target="78961159f06e98e8-34" edge="1">
          <mxGeometry relative="1" as="geometry">
            <Array as="points">
              <mxPoint x="1090" y="150" />
            </Array>
          </mxGeometry>
        </mxCell>
        <mxCell id="eh9-Qkt411okgl2UQYhm-33" style="rounded=0;orthogonalLoop=1;jettySize=auto;html=1;exitX=1;exitY=0.5;exitDx=0;exitDy=0;entryX=0;entryY=0.5;entryDx=0;entryDy=0;strokeColor=#00CC00;strokeWidth=2;" parent="1" source="eh9-Qkt411okgl2UQYhm-28" target="78961159f06e98e8-37" edge="1">
          <mxGeometry relative="1" as="geometry" />
        </mxCell>
        <mxCell id="eh9-Qkt411okgl2UQYhm-35" style="edgeStyle=orthogonalEdgeStyle;rounded=0;orthogonalLoop=1;jettySize=auto;html=1;exitX=1;exitY=0.5;exitDx=0;exitDy=0;entryX=0;entryY=0.5;entryDx=0;entryDy=0;strokeColor=#808080;strokeWidth=2;" parent="1" source="4KCaEJAsy-zKywp0iypv-103" target="eh9-Qkt411okgl2UQYhm-15" edge="1">
          <mxGeometry relative="1" as="geometry">
            <Array as="points">
              <mxPoint x="600" y="82" />
              <mxPoint x="600" y="43" />
            </Array>
          </mxGeometry>
        </mxCell>
        <mxCell id="eh9-Qkt411okgl2UQYhm-36" style="edgeStyle=orthogonalEdgeStyle;rounded=0;orthogonalLoop=1;jettySize=auto;html=1;exitX=1;exitY=0.5;exitDx=0;exitDy=0;strokeColor=#808080;strokeWidth=2;" parent="1" source="4KCaEJAsy-zKywp0iypv-102" target="eh9-Qkt411okgl2UQYhm-10" edge="1">
          <mxGeometry relative="1" as="geometry">
            <Array as="points">
              <mxPoint x="580" y="56" />
              <mxPoint x="580" y="-9" />
            </Array>
          </mxGeometry>
        </mxCell>
        <mxCell id="eh9-Qkt411okgl2UQYhm-37" style="edgeStyle=orthogonalEdgeStyle;rounded=0;orthogonalLoop=1;jettySize=auto;html=1;exitX=1;exitY=0.5;exitDx=0;exitDy=0;entryX=0;entryY=0.5;entryDx=0;entryDy=0;strokeWidth=2;shape=link;strokeColor=#FFE433;" parent="1" source="4KCaEJAsy-zKywp0iypv-68" target="eh9-Qkt411okgl2UQYhm-25" edge="1">
          <mxGeometry relative="1" as="geometry">
            <Array as="points">
              <mxPoint x="660" y="361" />
              <mxPoint x="660" y="255" />
            </Array>
          </mxGeometry>
        </mxCell>
        <mxCell id="eh9-Qkt411okgl2UQYhm-38" style="rounded=0;orthogonalLoop=1;jettySize=auto;html=1;exitX=1;exitY=0.5;exitDx=0;exitDy=0;entryX=0;entryY=0.5;entryDx=0;entryDy=0;strokeColor=#808080;strokeWidth=2;" parent="1" source="4KCaEJAsy-zKywp0iypv-71" target="eh9-Qkt411okgl2UQYhm-28" edge="1">
          <mxGeometry relative="1" as="geometry" />
        </mxCell>
        <mxCell id="eh9-Qkt411okgl2UQYhm-39" style="rounded=0;orthogonalLoop=1;jettySize=auto;html=1;exitX=1;exitY=0.5;exitDx=0;exitDy=0;entryX=0.005;entryY=0.706;entryDx=0;entryDy=0;entryPerimeter=0;strokeColor=#808080;strokeWidth=2;" parent="1" source="4KCaEJAsy-zKywp0iypv-117" target="eh9-Qkt411okgl2UQYhm-28" edge="1">
          <mxGeometry relative="1" as="geometry" />
        </mxCell>
        <mxCell id="eh9-Qkt411okgl2UQYhm-41" value="many to one&amp;nbsp;" style="text;html=1;align=center;verticalAlign=middle;resizable=0;points=[];autosize=1;fillColor=#f8cecc;gradientColor=#ea6b66;strokeColor=#b85450;fontStyle=1" parent="1" vertex="1">
          <mxGeometry x="-115" y="304" width="90" height="20" as="geometry" />
        </mxCell>
        <mxCell id="eh9-Qkt411okgl2UQYhm-45" style="edgeStyle=orthogonalEdgeStyle;rounded=0;orthogonalLoop=1;jettySize=auto;html=1;exitX=1;exitY=0.5;exitDx=0;exitDy=0;strokeColor=#67AB9F;strokeWidth=2;elbow=vertical;curved=1;shape=arrow;" parent="1" source="eh9-Qkt411okgl2UQYhm-6" target="eh9-Qkt411okgl2UQYhm-44" edge="1">
          <mxGeometry relative="1" as="geometry" />
        </mxCell>
        <mxCell id="eh9-Qkt411okgl2UQYhm-47" style="rounded=0;orthogonalLoop=1;jettySize=auto;html=1;exitX=1;exitY=0.5;exitDx=0;exitDy=0;entryX=0;entryY=0.5;entryDx=0;entryDy=0;strokeWidth=1;strokeColor=#000099;" parent="1" source="78961159f06e98e8-36" target="4KCaEJAsy-zKywp0iypv-203" edge="1">
          <mxGeometry relative="1" as="geometry" />
        </mxCell>
        <mxCell id="eh9-Qkt411okgl2UQYhm-48" style="rounded=0;orthogonalLoop=1;jettySize=auto;html=1;exitX=1;exitY=0.5;exitDx=0;exitDy=0;strokeWidth=3;strokeColor=#FF3333;entryX=0;entryY=0.5;entryDx=0;entryDy=0;" parent="1" source="78961159f06e98e8-39" target="4KCaEJAsy-zKywp0iypv-203" edge="1">
          <mxGeometry relative="1" as="geometry">
            <mxPoint x="1560" y="130" as="targetPoint" />
          </mxGeometry>
        </mxCell>
        <mxCell id="eh9-Qkt411okgl2UQYhm-49" style="rounded=0;orthogonalLoop=1;jettySize=auto;html=1;exitX=1;exitY=0.5;exitDx=0;exitDy=0;entryX=0;entryY=0.5;entryDx=0;entryDy=0;strokeWidth=2;strokeColor=#6600CC;elbow=vertical;" parent="1" source="4KCaEJAsy-zKywp0iypv-210" target="4KCaEJAsy-zKywp0iypv-199" edge="1">
          <mxGeometry relative="1" as="geometry" />
        </mxCell>
        <mxCell id="eh9-Qkt411okgl2UQYhm-50" style="edgeStyle=none;rounded=0;orthogonalLoop=1;jettySize=auto;html=1;exitX=1;exitY=0.5;exitDx=0;exitDy=0;entryX=0;entryY=0.5;entryDx=0;entryDy=0;strokeColor=#6600CC;strokeWidth=2;" parent="1" source="4KCaEJAsy-zKywp0iypv-170" target="78961159f06e98e8-34" edge="1">
          <mxGeometry relative="1" as="geometry" />
        </mxCell>
        <mxCell id="eh9-Qkt411okgl2UQYhm-51" style="edgeStyle=none;shape=flexArrow;rounded=0;orthogonalLoop=1;jettySize=auto;html=1;exitX=1;exitY=0.5;exitDx=0;exitDy=0;entryX=0;entryY=1.05;entryDx=0;entryDy=0;entryPerimeter=0;strokeColor=#6600CC;strokeWidth=2;" parent="1" source="4KCaEJAsy-zKywp0iypv-146" target="4KCaEJAsy-zKywp0iypv-173" edge="1">
          <mxGeometry relative="1" as="geometry" />
        </mxCell>
      </root>
    </mxGraphModel>
  </diagram>
</mxfile>
